Coordinates
version=1
nRows=15
nColumns=34
inDegrees=no

Units are S.I. units (second, meters, Newtons, ...)
If the header above contains a line with 'inDegrees', this indicates whether rotational values are in degrees (yes) or radians (no).

endheader
time	pelvis_tilt	pelvis_list	pelvis_rotation	pelvis_tx	pelvis_ty	pelvis_tz	hip_flexion_r	hip_adduction_r	hip_rotation_r	knee_angle_r	ankle_angle_r	subtalar_angle_r	mtp_angle_r	hip_flexion_l	hip_adduction_l	hip_rotation_l	knee_angle_l	ankle_angle_l	subtalar_angle_l	mtp_angle_l	lumbar_extension	lumbar_bending	lumbar_rotation	arm_flex_r	arm_add_r	arm_rot_r	elbow_flex_r	pro_sup_r	arm_flex_l	arm_add_l	arm_rot_l	elbow_flex_l	pro_sup_l
8.11	-0.148116	-0.036393	-0.0352906	-0.152192	1.04647	-0.650456	0.124701	-0.138005	-0.339104	0.0297943	0.133537	0.258835	-0.11766	0.152753	-0.20186	-0.360316	0.0943722	0.242646	0.407209	-0.117661	0.105443	0.0689856	-0.0371319	-0.202465	-0.1511	-0.155473	0.698661	1.60251	-0.227381	-0.105538	0.0412293	0.597674	1.43091
8.12	-0.145749	-0.0365638	-0.034995	-0.151391	1.04662	-0.650392	0.121002	-0.137842	-0.339183	0.0297861	0.134578	0.258815	-0.11766	0.149134	-0.201912	-0.360389	0.0940123	0.24368	0.407683	-0.117661	0.1053	0.0685478	-0.0372938	-0.20467	-0.150642	-0.154399	0.700447	1.60027	-0.230506	-0.104477	0.0411864	0.600017	1.42661
8.13	-0.143493	-0.0366257	-0.0346612	-0.150626	1.04676	-0.650332	0.117472	-0.137804	-0.339306	0.0298481	0.135583	0.258792	-0.11766	0.14555	-0.201774	-0.360284	0.0933658	0.244452	0.407967	-0.117661	0.105134	0.0679996	-0.0375172	-0.206774	-0.150134	-0.153686	0.702035	1.59765	-0.2337	-0.103538	0.0407108	0.602792	1.42094
8.14	-0.141352	-0.0365997	-0.0342591	-0.149904	1.04688	-0.650279	0.114109	-0.137867	-0.339502	0.0299453	0.136525	0.258772	-0.11766	0.142053	-0.20148	-0.360029	0.0924792	0.244982	0.408121	-0.117661	0.10491	0.0673606	-0.0378062	-0.208757	-0.149576	-0.153346	0.703434	1.59499	-0.236885	-0.102719	0.0397909	0.605922	1.41438
8.15	-0.139358	-0.0365182	-0.0337628	-0.149236	1.04699	-0.650234	0.110949	-0.137993	-0.339793	0.0300508	0.137386	0.258747	-0.11766	0.138747	-0.201091	-0.359674	0.0914511	0.245318	0.408227	-0.117661	0.104628	0.0666597	-0.0381606	-0.210612	-0.148978	-0.153368	0.704656	1.59272	-0.239982	-0.10201	0.0384018	0.609285	1.40769
8.16	-0.137551	-0.036419	-0.0331548	-0.148629	1.04709	-0.650197	0.108043	-0.13814	-0.340184	0.0301468	0.138151	0.258703	-0.11766	0.135755	-0.200683	-0.359278	0.0904124	0.245524	0.408375	-0.117661	0.104305	0.0659297	-0.038575	-0.212342	-0.148364	-0.153713	0.705718	1.59132	-0.242919	-0.101404	0.0365443	0.61274	1.40174
8.17	-0.135954	-0.0363358	-0.0324295	-0.14809	1.04716	-0.650167	0.105425	-0.138272	-0.340666	0.0302233	0.138812	0.258616	-0.11766	0.13317	-0.200324	-0.358884	0.0894892	0.245658	0.40862	-0.117661	0.10395	0.0651998	-0.0390388	-0.213951	-0.147766	-0.154289	0.706651	1.59102	-0.24564	-0.100912	0.0342874	0.616172	1.39714
8.18	-0.134565	-0.036293	-0.0315936	-0.147623	1.04722	-0.650143	0.103101	-0.138359	-0.341214	0.030276	0.139362	0.258455	-0.11766	0.131041	-0.200064	-0.358513	0.0887841	0.245764	0.40898	-0.117661	0.103558	0.0644909	-0.0395375	-0.215447	-0.147227	-0.154969	0.707495	1.59182	-0.248103	-0.10056	0.0317715	0.619501	1.39415
8.19	-0.133361	-0.0363036	-0.0306655	-0.147226	1.04726	-0.650123	0.101052	-0.138386	-0.341795	0.0303043	0.139794	0.258189	-0.11766	0.129369	-0.199935	-0.358168	0.0883677	0.245875	0.409442	-0.117661	0.103111	0.0638157	-0.0400537	-0.216834	-0.146788	-0.155607	0.708292	1.59351	-0.250283	-0.100382	0.0291813	0.622671	1.39274
8.2	-0.132314	-0.0363697	-0.0296749	-0.1469	1.04728	-0.650103	0.0992453	-0.138344	-0.342368	0.0303092	0.140097	0.257784	-0.11766	0.128123	-0.199946	-0.357849	0.088273	0.246005	0.409982	-0.117661	0.10259	0.0631798	-0.0405676	-0.218113	-0.146484	-0.156064	0.709078	1.59576	-0.252166	-0.100409	0.0267094	0.625638	1.39263
8.21	-0.131389	-0.0364845	-0.0286601	-0.146639	1.0473	-0.650082	0.0976513	-0.138237	-0.34289	0.0302929	0.140261	0.25721	-0.11766	0.127245	-0.200089	-0.357552	0.0884932	0.24616	0.410568	-0.117661	0.101978	0.0625843	-0.0410587	-0.21928	-0.14634	-0.156235	0.709878	1.59819	-0.253751	-0.10066	0.0245263	0.628352	1.39347
8.22	-0.130563	-0.0366339	-0.0276634	-0.146441	1.0473	-0.650057	0.0962491	-0.13808	-0.343322	0.0302582	0.140284	0.25645	-0.11766	0.126663	-0.200339	-0.357278	0.0889831	0.246328	0.411166	-0.117661	0.101268	0.0620268	-0.0415077	-0.220328	-0.146365	-0.156055	0.710702	1.60047	-0.255046	-0.101139	0.0227633	0.630757	1.39491
8.23	-0.129818	-0.0367982	-0.0267276	-0.1463	1.04731	-0.650029	0.0950338	-0.137897	-0.34363	0.0302096	0.140174	0.255499	-0.11766	0.126301	-0.200658	-0.35703	0.0896644	0.246489	0.411744	-0.117661	0.100466	0.0615009	-0.0418974	-0.221251	-0.146559	-0.155503	0.711552	1.60232	-0.256065	-0.101831	0.0215032	0.632793	1.39664
8.24	-0.129151	-0.0369536	-0.0258917	-0.146213	1.04731	-0.649996	0.0940152	-0.13772	-0.343787	0.0301551	0.13995	0.254365	-0.11766	0.126085	-0.200997	-0.356808	0.0904365	0.246608	0.412269	-0.117661	0.0995885	0.0609965	-0.0422116	-0.222047	-0.146914	-0.154593	0.712428	1.60356	-0.25683	-0.102711	0.0207736	0.634407	1.39842
8.25	-0.128566	-0.037075	-0.0251882	-0.146175	1.0473	-0.64996	0.093213	-0.137585	-0.343777	0.0301068	0.139644	0.253066	-0.11766	0.125951	-0.201304	-0.356614	0.091192	0.246652	0.412707	-0.117661	0.0986629	0.0605003	-0.0424345	-0.222724	-0.147418	-0.153355	0.713336	1.60412	-0.257367	-0.103736	0.0205459	0.635566	1.40013
